<?xml version="1.0" encoding="UTF-8"?>
<!DOCTYPE svg PUBLIC "-//W3C//DTD SVG 1.1//EN" "http://www.w3.org/Graphics/SVG/1.1/DTD/svg11.dtd">
<svg xmlns="http://www.w3.org/2000/svg" version="1.1" width="64px" height="64px" style="shape-rendering:geometricPrecision; text-rendering:geometricPrecision; image-rendering:optimizeQuality; fill-rule:evenodd; clip-rule:evenodd" xmlns:xlink="http://www.w3.org/1999/xlink">
<g><path style="opacity:0.861" fill="#010202" d="M 9.5,-0.5 C 24.1667,-0.5 38.8333,-0.5 53.5,-0.5C 54.5045,0.682751 55.3378,2.01608 56,3.5C 56.6667,22.1667 56.6667,40.8333 56,59.5C 55.3103,61.3502 54.1436,62.6836 52.5,63.5C 43.1667,63.5 33.8333,63.5 24.5,63.5C 24.6107,62.8826 24.944,62.3826 25.5,62C 34.1667,61.6667 42.8333,61.3333 51.5,61C 52.3333,60.1667 53.1667,59.3333 54,58.5C 54.6667,40.5 54.6667,22.5 54,4.5C 53.1667,3.66667 52.3333,2.83333 51.5,2C 38.1667,1.33333 24.8333,1.33333 11.5,2C 10.6667,2.83333 9.83333,3.66667 9,4.5C 8.33333,22.5 8.33333,40.5 9,58.5C 9.83333,59.3333 10.6667,60.1667 11.5,61C 15.1667,61.3333 18.8333,61.6667 22.5,62C 23.056,62.3826 23.3893,62.8826 23.5,63.5C 18.8333,63.5 14.1667,63.5 9.5,63.5C 8.49551,62.3172 7.66218,60.9839 7,59.5C 6.33333,40.8333 6.33333,22.1667 7,3.5C 7.66218,2.01608 8.49551,0.682751 9.5,-0.5 Z"/></g>
<g><path style="opacity:1" fill="#374446" d="M 24.5,63.5 C 24.1667,63.5 23.8333,63.5 23.5,63.5C 23.3893,62.8826 23.056,62.3826 22.5,62C 18.8333,61.6667 15.1667,61.3333 11.5,61C 10.6667,60.1667 9.83333,59.3333 9,58.5C 8.33333,40.5 8.33333,22.5 9,4.5C 9.83333,3.66667 10.6667,2.83333 11.5,2C 24.8333,1.33333 38.1667,1.33333 51.5,2C 52.3333,2.83333 53.1667,3.66667 54,4.5C 54.6667,22.5 54.6667,40.5 54,58.5C 53.1667,59.3333 52.3333,60.1667 51.5,61C 42.8333,61.3333 34.1667,61.6667 25.5,62C 24.944,62.3826 24.6107,62.8826 24.5,63.5 Z"/></g>
<g><path style="opacity:1" fill="#07110f" d="M 39.5,5.5 C 31.0161,6.49302 22.3494,6.82636 13.5,6.5C 13.5,11.1667 13.5,15.8333 13.5,20.5C 25.5,20.5 37.5,20.5 49.5,20.5C 49.5,15.8333 49.5,11.1667 49.5,6.5C 46.6146,6.8064 43.9479,6.47307 41.5,5.5C 44.5645,4.18162 47.7312,4.18162 51,5.5C 51.6667,10.8333 51.6667,16.1667 51,21.5C 38.2421,22.6551 25.4088,22.8217 12.5,22C 11.3611,16.5838 11.1944,11.0838 12,5.5C 21.2649,4.17174 30.4315,4.17174 39.5,5.5 Z"/></g>
<g><path style="opacity:1" fill="#2bc3ae" d="M 39.5,5.5 C 40.1667,5.5 40.8333,5.5 41.5,5.5C 43.9479,6.47307 46.6146,6.8064 49.5,6.5C 49.5,11.1667 49.5,15.8333 49.5,20.5C 37.5,20.5 25.5,20.5 13.5,20.5C 13.5,15.8333 13.5,11.1667 13.5,6.5C 22.3494,6.82636 31.0161,6.49302 39.5,5.5 Z"/></g>
<g><path style="opacity:1" fill="#05100e" d="M 28.5,13.5 C 30.5851,14.3503 32.5851,14.6837 34.5,14.5C 33.5,14.8333 32.5,15.1667 31.5,15.5C 29.9704,15.3601 28.9704,14.6935 28.5,13.5 Z"/></g>
<g><path style="opacity:1" fill="#0f2c28" d="M 40.5,11.5 C 42.4646,11.9483 42.7979,12.9483 41.5,14.5C 40.6143,13.675 40.281,12.675 40.5,11.5 Z"/></g>
<g><path style="opacity:1" fill="#0d1c1a" d="M 20.5,11.5 C 22.4646,11.9483 22.7979,12.9483 21.5,14.5C 20.6143,13.675 20.281,12.675 20.5,11.5 Z"/></g>
<g><path style="opacity:1" fill="#151516" d="M 12.5,25.5 C 21.1594,23.6756 23.8261,26.8422 20.5,35C 12.254,36.5854 9.58731,33.4187 12.5,25.5 Z"/></g>
<g><path style="opacity:1" fill="#18150c" d="M 42.5,25.5 C 51.5152,23.9283 53.8485,27.095 49.5,35C 46.9009,35.769 44.4009,35.6023 42,34.5C 41.2642,31.408 41.4309,28.408 42.5,25.5 Z"/></g>
<g><path style="opacity:1" fill="#cccacb" d="M 13.5,27.5 C 15.5,27.5 17.5,27.5 19.5,27.5C 19.5,29.5 19.5,31.5 19.5,33.5C 17.5,33.5 15.5,33.5 13.5,33.5C 13.5,31.5 13.5,29.5 13.5,27.5 Z"/></g>
<g><path style="opacity:1" fill="#f8da74" d="M 43.5,27.5 C 45.5,27.5 47.5,27.5 49.5,27.5C 49.5,29.5 49.5,31.5 49.5,33.5C 47.5,33.5 45.5,33.5 43.5,33.5C 43.5,31.5 43.5,29.5 43.5,27.5 Z"/></g>
<g><path style="opacity:1" fill="#0e0f0f" d="M 27.5,25.5 C 35.8721,23.5363 38.5388,26.5363 35.5,34.5C 26.7551,37.2008 24.0884,34.2008 27.5,25.5 Z"/></g>
<g><path style="opacity:1" fill="#cecccd" d="M 28.5,27.5 C 30.5,27.5 32.5,27.5 34.5,27.5C 34.5,29.5 34.5,31.5 34.5,33.5C 32.5,33.5 30.5,33.5 28.5,33.5C 28.5,31.5 28.5,29.5 28.5,27.5 Z"/></g>
<g><path style="opacity:1" fill="#0e0f10" d="M 12.5,37.5 C 21.1594,35.6756 23.8261,38.8422 20.5,47C 12.254,48.5854 9.58731,45.4187 12.5,37.5 Z"/></g>
<g><path style="opacity:1" fill="#060a0a" d="M 42.5,37.5 C 51.5152,35.9283 53.8485,39.095 49.5,47C 46.9009,47.769 44.4009,47.6023 42,46.5C 41.2642,43.408 41.4309,40.408 42.5,37.5 Z"/></g>
<g><path style="opacity:1" fill="#23b09d" d="M 43.5,38.5 C 48.9064,37.7353 50.9064,40.0687 49.5,45.5C 43.0786,46.7522 41.0786,44.4189 43.5,38.5 Z"/></g>
<g><path style="opacity:1" fill="#b4b2b3" d="M 14.5,38.5 C 16.1667,38.5 17.8333,38.5 19.5,38.5C 19.5,40.8333 19.5,43.1667 19.5,45.5C 17.5,45.5 15.5,45.5 13.5,45.5C 13.298,43.0504 13.6314,40.717 14.5,38.5 Z"/></g>
<g><path style="opacity:1" fill="#090a0b" d="M 27.5,37.5 C 36.5152,35.9283 38.8485,39.095 34.5,47C 26.7783,48.0537 24.445,44.8871 27.5,37.5 Z"/></g>
<g><path style="opacity:1" fill="#c2c0c1" d="M 28.5,38.5 C 30.5,38.5 32.5,38.5 34.5,38.5C 34.5,40.8333 34.5,43.1667 34.5,45.5C 32.5,45.5 30.5,45.5 28.5,45.5C 28.5,43.1667 28.5,40.8333 28.5,38.5 Z"/></g>
<g><path style="opacity:1" fill="#101212" d="M 13.5,48.5 C 15.9201,48.2924 18.2534,48.6258 20.5,49.5C 23.5377,56.9424 21.2043,60.1091 13.5,59C 10.8805,55.5019 10.8805,52.0019 13.5,48.5 Z"/></g>
<g><path style="opacity:1" fill="#110f0f" d="M 42.5,48.5 C 51.4867,47.665 53.8201,51.165 49.5,59C 46.6529,59.9439 44.1529,59.4439 42,57.5C 41.2642,54.408 41.4309,51.408 42.5,48.5 Z"/></g>
<g><path style="opacity:1" fill="#bfbebe" d="M 13.5,50.5 C 15.5,50.5 17.5,50.5 19.5,50.5C 19.5,52.8333 19.5,55.1667 19.5,57.5C 17.5,57.5 15.5,57.5 13.5,57.5C 13.5,55.1667 13.5,52.8333 13.5,50.5 Z"/></g>
<g><path style="opacity:1" fill="#b84952" d="M 43.5,50.5 C 45.5,50.5 47.5,50.5 49.5,50.5C 49.5,52.8333 49.5,55.1667 49.5,57.5C 47.5,57.5 45.5,57.5 43.5,57.5C 43.5,55.1667 43.5,52.8333 43.5,50.5 Z"/></g>
<g><path style="opacity:1" fill="#080909" d="M 28.5,48.5 C 35.9928,47.8288 38.3261,50.9954 35.5,58C 26.4039,59.8786 24.0706,56.712 28.5,48.5 Z"/></g>
<g><path style="opacity:1" fill="#c2c0c1" d="M 28.5,50.5 C 30.5,50.5 32.5,50.5 34.5,50.5C 34.5,52.8333 34.5,55.1667 34.5,57.5C 32.5,57.5 30.5,57.5 28.5,57.5C 28.5,55.1667 28.5,52.8333 28.5,50.5 Z"/></g>
</svg>
